<?xml version="1.0" encoding="utf-8"?>
<!-- Generator: Adobe Illustrator 20.0.0, SVG Export Plug-In . SVG Version: 6.00 Build 0)  -->
<svg version="1.1" id="图层_1" xmlns="http://www.w3.org/2000/svg" x="0px"
     y="0px"
     viewBox="0 0 1005 886" style="enable-background:new 0 0 1005 886;" xml:space="preserve">
<style type="text/css">
	.st0{fill:none;stroke:#545557;stroke-width:2;}
</style>
    <g>
	<path vector-effect="non-scaling-stroke" class="st0" d="M287.3,330.6c-6.9,4-14.6,8.2-20.6,12.4c-70,49.1-101.9,137-108.4,219.2
		c-0.4,4.7-0.3,7.9,0.2,9.7c1.8,6.5,8.9,10.3,15.5,9.9c3-0.2,4.6-0.3,4.7-0.3c163,0,326,0,489,0c0.1,0,3.3,0,9.7,0.1
		c44.4,0.6,84.8-15.8,100.1-60.5c10.9-31.8,4.9-67.6-9.7-97.5C726.9,339.8,647,270.8,553,256.7c-2.7-0.4-5.3-0.2-8.1,0.1
		c-0.3,0-0.6,0-0.9-0.2c-13.4-6.4-27.3-9-41.8-7.9c-16.9,1.3-33.3,9.4-49.8,9.6c-12.6,0.2-25-4.9-35.6-10.3
		c-17.9-9.1-35.6-8.3-54.3-1.7c-37.7,13.2-65.2,45.1-74.7,83.5C287.8,330.1,287.6,330.4,287.3,330.6"/>
        <path vector-effect="non-scaling-stroke" class="st0" d="M601.9,377.6c-14.9-4.6-33.2-9.3-39.6-25.7c-2.7-7-4.8-15-6.1-24.2
		c-2.8-19.3-5.7-38.9-26.5-47.5c-25.9-10.7-44.6,2.6-69.6,5c-14.9,1.4-29.4-1-43.4-7.2c-12.5-5.5-21.1-11.7-35.5-8.6
		c-27.3,6-45.9,22.5-59.2,46.8c-0.1,0.2,0,0.3,0.1,0.4c0.1,0,0.2,0.1,0.3,0c38.5-10.9,79.7-11.7,119.1-5.1
		c10.7,1.8,20.8,4.3,30.4,7.5c61.9,20.6,97.3,71.3,123.1,128.1c9.9,21.8,19.1,43.5,30.7,64.8c6.2,11.3,14.2,23.4,24.2,30.9
		c0.3,0.2,0.5,0.2,0.8,0c8.9-8.4,19.3-18.8,25-30.4c3.3-6.7,3.9-12.5-1.3-18c-10.3-10.9-25.6-16.9-35-28.5
		c-16-19.5-8.2-39.3-1.2-60.5c2.2-6.8,0.3-15.8-7-18.6C621.5,383.3,611.7,380.6,601.9,377.6"/>
        <path vector-effect="non-scaling-stroke" class="st0" d="M704.9,511c-2.9,15.8-14.8,31.4-26,42.5c-0.1,0.1-0.1,0.3,0,0.4
		c0,0.1,0.1,0.1,0.2,0.1c31.8,1,60.7-10.7,72.2-41.8c13.9-37.6-7.4-81.4-28.5-112.2c-34.1-49.8-84.3-91-142.4-109.2
		c-1.6-0.5-3.2-0.9-4.7-1.3c-0.4-0.1-0.5,0-0.4,0.4c5.6,14.3,7.4,29.6,10.2,44.5c1.6,8.5,5.5,11,13.3,13.4
		c10.4,3.3,20.9,6.4,31.3,9.5c9,2.6,18.3,5.9,24.8,12.9c14.8,16.1,13.2,34.8,6,54c-3.7,9.9-6.7,20.4,3,27.6
		C684.3,467,710.5,480.1,704.9,511"/>
        <path vector-effect="non-scaling-stroke" class="st0" d="M187.1,554.2c8.8,0.5,17.6-0.2,26.3-0.2c135.7,0,271.4,0,407.2,0
		c0.4,0,0.5-0.2,0.2-0.5c-23.6-29.1-36.7-64.2-51.8-97.4c-8.9-19.5-19.5-37.9-32.1-55.3c-25.7-35.6-60.6-56.3-104.1-62.8
		c-78.1-11.7-152.2,8.1-198.1,76.1c-27.7,41-42.9,90.7-48,139.6C186.6,554,186.7,554.2,187.1,554.2"/>
</g>
    <path d="M287.9,329.8c9.5-38.4,36.9-70.3,74.7-83.5c18.7-6.6,36.4-7.4,54.3,1.7c10.7,5.4,23.1,10.5,35.6,10.3
	c16.5-0.3,32.9-8.4,49.8-9.6c14.5-1.1,28.4,1.6,41.8,7.9c0.3,0.1,0.6,0.2,0.9,0.2c2.7-0.2,5.3-0.5,8.1-0.1
	c94,14.1,173.9,83.1,214.6,166.8c14.6,29.9,20.6,65.7,9.7,97.5c-15.3,44.7-55.7,61.1-100.1,60.5c-6.4-0.1-9.6-0.1-9.7-0.1
	c-163,0-326,0-489,0c-0.1,0-1.6,0.1-4.7,0.3c-6.6,0.4-13.7-3.4-15.5-9.9c-0.5-1.8-0.6-5-0.2-9.7c6.5-82.2,38.4-170,108.4-219.2
	c6-4.2,13.7-8.4,20.6-12.4C287.6,330.4,287.8,330.1,287.9,329.8z M601.9,377.6c-14.9-4.6-33.2-9.3-39.6-25.7c-2.7-7-4.8-15-6.1-24.2
	c-2.8-19.3-5.7-38.9-26.5-47.5c-25.9-10.7-44.6,2.6-69.6,5c-14.9,1.4-29.4-1-43.4-7.2c-12.5-5.5-21.1-11.7-35.5-8.6
	c-27.3,6-45.9,22.5-59.2,46.8c-0.1,0.2,0,0.3,0.1,0.4c0.1,0,0.2,0.1,0.3,0c38.5-10.9,79.7-11.7,119.1-5.1
	c10.7,1.8,20.8,4.3,30.4,7.5c61.9,20.6,97.3,71.3,123.1,128.1c9.9,21.8,19.1,43.5,30.7,64.8c6.2,11.3,14.2,23.4,24.2,30.9
	c0.3,0.2,0.5,0.2,0.8,0c8.9-8.4,19.3-18.8,25-30.4c3.3-6.7,3.9-12.5-1.3-18c-10.3-10.9-25.6-16.9-35-28.5
	c-16-19.5-8.2-39.3-1.2-60.5c2.2-6.8,0.3-15.8-7-18.6C621.5,383.3,611.7,380.6,601.9,377.6z M704.9,511c-2.9,15.8-14.8,31.4-26,42.5
	c-0.1,0.1-0.1,0.3,0,0.4c0,0.1,0.1,0.1,0.2,0.1c31.8,1,60.7-10.7,72.2-41.8c13.9-37.6-7.4-81.4-28.5-112.2
	c-34.1-49.8-84.3-91-142.4-109.2c-1.6-0.5-3.2-0.9-4.7-1.3c-0.4-0.1-0.5,0-0.4,0.4c5.6,14.3,7.4,29.6,10.2,44.5
	c1.6,8.5,5.5,11,13.3,13.4c10.4,3.3,20.9,6.4,31.3,9.5c9,2.6,18.3,5.9,24.8,12.9c14.8,16.1,13.2,34.8,6,54c-3.7,9.9-6.7,20.4,3,27.6
	C684.3,467,710.5,480.1,704.9,511z M187.1,554.2c8.8,0.5,17.6-0.2,26.3-0.2c135.7,0,271.4,0,407.2,0c0.4,0,0.5-0.2,0.2-0.5
	c-23.6-29.1-36.7-64.2-51.8-97.4c-8.9-19.5-19.5-37.9-32.1-55.3c-25.7-35.6-60.6-56.3-104.1-62.8c-78.1-11.7-152.2,8.1-198.1,76.1
	c-27.7,41-42.9,90.7-48,139.6C186.6,554,186.7,554.2,187.1,554.2z"/>
</svg>
