<?xml version="1.0" encoding="utf-8"?>
<!-- Generator: Adobe Illustrator 24.0.0, SVG Export Plug-In . SVG Version: 6.00 Build 0)  -->
<svg version="1.1" id="图层_1" xmlns="http://www.w3.org/2000/svg" x="0px"
     y="0px"
     viewBox="0 0 1005 886" style="enable-background:new 0 0 1005 886;" xml:space="preserve">
<style type="text/css">
	.st0{fill:#E13B3A;}
	.st1{fill:#BE1415;}
	.st2{fill:none;}
	.st3{fill:#7AAB02;}
	.st4{fill:#FCC062;}
	.st5{fill:#F7941E;}
</style>
    <path class="st0" d="M0,0L0,0L0,0L0,0L0,0L0,0L0,0z"/>
    <path class="st1" d="M0,0L0,0L0,0z"/>
    <polygon class="st2" points="0,0 0,0 0,0 "/>
    <polygon class="st2" points="0,0 0,0 0,0 "/>
    <polygon class="st2" points="0,0 0,0 0,0 "/>
    <polygon class="st2" points="0,0 0,0 0,0 "/>
    <polygon class="st2" points="0,0 0,0 0,0 "/>
    <polygon class="st2" points="0,0 0,0 0,0 "/>
    <polygon class="st2" points="0,0 0,0 0,0 "/>
    <polygon class="st2" points="0,0 0,0 0,0 "/>
    <polygon class="st2" points="0,0 0,0 0,0 "/>
    <polygon class="st2" points="0,0 0,0 0,0 "/>
    <polygon class="st2" points="0,0 0,0 0,0 "/>
    <polygon class="st2" points="0,0 0,0 0,0 "/>
    <polygon class="st2" points="0,0 0,0 0,0 "/>
    <polygon class="st2" points="0,0 0,0 0,0 "/>
    <polygon class="st2" points="0,0 0,0 0,0 "/>
    <polygon class="st2" points="0,0 0,0 0,0 "/>
    <polygon class="st2" points="0,0 0,0 0,0 "/>
    <polygon class="st2" points="0,0 0,0 0,0 "/>
    <polygon class="st2" points="0,0 0,0 0,0 "/>
    <polygon class="st2" points="0,0 0,0 0,0 "/>
    <polygon class="st2" points="0,0 0,0 0,0 "/>
    <polygon class="st2" points="0,0 0,0 0,0 "/>
    <polygon class="st2" points="0,0 0,0 0,0 "/>
    <polygon class="st2" points="0,0 0,0 0,0 "/>
    <polygon class="st2" points="0,0 0,0 0,0 "/>
    <polygon class="st2" points="0,0 0,0 0,0 "/>
    <g>
	<g id="XMLID_1_">
		<g>
			<path class="st3" d="M806.5,523.8c7.7,8.2,6.8,16.7,1.9,26.7c-8.4,17.2-23.9,32.6-37.1,45.1c-0.4,0.3-0.7,0.3-1.2,0
				c-14.8-11.1-26.7-29-35.9-45.8c-17.2-31.6-30.8-63.7-45.5-96c-38.2-84.2-90.7-159.3-182.4-189.9c-14.2-4.7-29.2-8.4-45.1-11.1
				c-58.4-9.8-119.5-8.6-176.5,7.6c-0.1,0.1-0.3,0-0.4,0c-0.1-0.1-0.3-0.3-0.1-0.6c19.7-36,47.3-60.5,87.7-69.4
				c21.3-4.6,34.1,4.6,52.6,12.7c20.7,9.2,42.2,12.7,64.3,10.7c37.1-3.6,64.8-23.3,103.2-7.4c30.8,12.7,35.1,41.8,39.3,70.4
				c1.9,13.6,5,25.5,9,35.9c9.5,24.3,36.6,31.3,58.7,38.1c14.5,4.4,29,8.4,43.4,13.6c10.8,4.1,13.6,17.5,10.4,27.6
				c-10.4,31.4-21.9,60.8,1.8,89.7C768.5,498.7,791.2,507.6,806.5,523.8z"/>
            <path d="M944.7,418.7c21.6,44.3,30.5,97.4,14.4,144.5c-22.7,66.3-82.6,90.6-148.4,89.7c-9.5-0.1-14.2-0.1-14.4-0.1
				c-241.6,0-483.2,0-724.8,0c-0.1,0-2.4,0.1-7,0.4c-6.2,0.4-12.9-1.8-17.5-5.9c-0.4-0.3-0.7-0.7-1-1c-1.9-2.1-3.4-4.6-4.3-7.4
				c-0.7-2.7-0.9-7.4-0.3-14.4c9.6-121.8,56.9-252.1,160.7-324.9c8.9-6.2,20.3-12.4,30.5-18.4c0.3-0.1,0.4-0.4,0.6-0.6
				c0.1-0.1,0.3-0.4,0.3-0.6c14.1-56.9,54.7-104.2,110.7-123.8c11.7-4.1,23.3-6.8,34.7-7.4c3.3-0.1,6.5-0.1,9.8,0
				c12,0.7,23.9,3.7,35.9,9.8c15,7.6,32.3,14.8,49.9,15.3c1,0,1.9,0,3,0c0.1,0,0.4,0,0.6,0c0.6,0,1.2,0,1.6,0c0.7,0,1.5-0.1,2.2-0.1
				c20.6-1.5,41.1-10.2,62.1-13.2c1.5-0.1,3-0.4,4.4-0.6c0.1,0,0.4,0,0.6,0c0.7,0,1.3-0.1,2.1-0.1c0.7,0,1.5-0.1,2.2-0.1
				c4.6-0.3,9.3-0.3,13.9,0c10.1,0.6,20,2.4,29.8,5.5c1.5,0.4,2.8,0.9,4.3,1.5c3.9,1.5,7.9,3.1,11.7,4.9c0.4,0.3,0.9,0.3,1.3,0.3
				l0,0c0,0,0,0,0.1,0c3.3-0.3,6.5-0.6,9.8-0.4c0.3,0,0.6,0,0.9,0.1c0.4,0,0.7,0.1,1.2,0.1C750.6,190.3,858,273.3,923,379
				c1.2,1.9,2.2,3.7,3.4,5.6c1.2,1.9,2.2,3.7,3.3,5.6v0.1C935,399.4,940,408.9,944.7,418.7z M920.4,550.1
				c20.6-55.7-11-120.6-42.2-166.3C827.7,310,753.3,249,667.1,222c-2.4-0.7-4.7-1.3-7-1.9c-0.6-0.1-0.7,0-0.6,0.6
				c8.3,21.2,11,43.9,15.1,66c2.4,12.6,8.2,16.3,19.7,19.9c15.4,4.9,31,9.5,46.4,14.1c13.3,3.9,27.1,8.7,36.8,19.1
				c21.9,23.9,19.6,51.6,8.9,80c-5.5,14.7-9.9,30.2,4.4,40.9c30.2,22.5,69.1,41.9,60.8,87.7c-4.3,23.4-21.9,46.5-38.5,63
				c-0.1,0.1-0.1,0.4,0,0.6c0,0.1,0.1,0.1,0.3,0.1C860.6,613.6,903.4,596.2,920.4,550.1z M808.4,550.4c4.9-9.9,5.8-18.5-1.9-26.7
				c-15.3-16.2-37.9-25-51.9-42.2c-23.7-28.9-12.2-58.2-1.8-89.7c3.3-10.1,0.4-23.4-10.4-27.6c-14.4-5.2-28.9-9.2-43.4-13.6
				c-22.1-6.8-49.2-13.8-58.7-38.1c-4-10.4-7.1-22.2-9-35.9c-4.1-28.6-8.4-57.7-39.3-70.4c-38.4-15.9-66.1,3.9-103.2,7.4
				c-22.1,2.1-43.6-1.5-64.3-10.7c-18.5-8.2-31.3-17.3-52.6-12.7c-40.5,8.9-68,33.3-87.7,69.4c-0.1,0.3,0,0.4,0.1,0.6
				c0.1,0,0.3,0.1,0.4,0c57.1-16.2,118.1-17.3,176.5-7.6c15.9,2.7,30.8,6.4,45.1,11.1c91.7,30.5,144.2,105.7,182.4,189.9
				c14.7,32.3,28.3,64.5,45.5,96c9.2,16.7,21,34.7,35.9,45.8c0.4,0.3,0.7,0.3,1.2,0C784.5,583.1,799.9,567.6,808.4,550.4z
				 M726.7,612.1c0.6,0,0.7-0.3,0.3-0.7c-35-43.1-54.4-95.2-76.8-144.4c-13.2-28.9-28.9-56.2-47.6-82
				c-38.1-52.8-89.8-83.4-154.3-93.1c-115.8-17.3-225.6,12-293.6,112.8c-41.1,60.8-63.6,134.4-71.1,206.9c-0.1,0.4,0,0.7,0.6,0.7
				c13,0.7,26.1-0.3,39-0.3C324.3,612.1,525.5,612.1,726.7,612.1z"/>
            <path class="st4" d="M878.2,383.9c31.3,45.6,62.8,110.6,42.2,166.3c-17,46.1-59.9,63.4-107,62c-0.1,0-0.3,0-0.3-0.1
				c-0.1-0.1-0.1-0.4,0-0.6c16.6-16.5,34.2-39.6,38.5-63c8.3-45.8-30.5-65.2-60.8-87.7c-14.4-10.7-9.9-26.2-4.4-40.9
				c10.7-28.5,13-56.2-8.9-80c-9.6-10.4-23.4-15.3-36.8-19.1c-15.4-4.6-31-9.2-46.4-14.1c-11.6-3.6-17.3-7.3-19.7-19.9
				c-4.1-22.1-6.8-44.8-15.1-66c-0.1-0.6,0-0.7,0.6-0.6c2.2,0.6,4.6,1.2,7,1.9C753.3,249,827.7,310,878.2,383.9z"/>
            <path d="M626.7,171.5C750.7,190.1,858.3,273.3,923,378.8C858,273.1,750.6,190,626.5,171.5c-0.4,0-0.7-0.1-1.2-0.1
				C625.8,171.3,626.2,171.3,626.7,171.5z"/>
            <path class="st4" d="M727,611.4c0.4,0.4,0.3,0.7-0.3,0.7c-201.3,0-402.4,0-603.5,0c-12.9,0-25.9,1-39,0.3c-0.6,0-0.7-0.3-0.6-0.7
				c7.6-72.5,30.1-146.1,71.1-206.9C222.8,304,332.6,274.6,448.4,292c64.5,9.6,116.2,40.3,154.3,93.1c18.7,25.8,34.4,53.1,47.6,82
				C672.6,516.2,692,568.2,727,611.4z"/>
            <path d="M614.5,171.6L614.5,171.6c-0.4,0-0.9,0-1.3-0.3c-3.9-1.9-7.7-3.6-11.7-4.9c4,1.5,8,3.1,11.9,4.9
				C613.8,171.3,614.2,171.5,614.5,171.6z"/>
            <path d="M548.7,159.8c-1.5,0.1-3,0.3-4.4,0.6C545.8,160.1,547.2,159.9,548.7,159.8z"/>
            <path d="M482.2,173.5c20.6-1.5,41.1-10.2,62.1-13.2C523.2,163.3,502.8,172.1,482.2,173.5z"/>
            <path d="M478.2,173.7c0.6,0,1.2,0,1.6,0C479.2,173.7,478.8,173.7,478.2,173.7z"/>
            <path d="M424.8,158.6c15,7.6,32.3,14.8,49.8,15.3c-17.6-0.4-35-7.7-49.9-15.3c-12-6.1-23.9-9.2-35.9-9.8
				C400.8,149.4,412.8,152.3,424.8,158.6z"/>
            <path d="M233.3,280.3c-0.1,0.3-0.3,0.4-0.6,0.6c-10.2,5.9-21.6,12.2-30.5,18.4C98.5,372,51.2,502.3,41.5,624.1
				c-0.6,7-0.4,11.7,0.3,14.4c0.7,2.8,2.2,5.3,4.3,7.4c-2.1-2.1-3.6-4.7-4.4-7.6c-0.7-2.7-0.9-7.4-0.3-14.4
				C51,502.1,98.3,372,202.1,299.1c8.9-6.2,20.3-12.4,30.5-18.4C232.9,280.7,233.2,280.5,233.3,280.3z"/>
		</g>
	</g>
        <circle class="st5" cx="224.9" cy="399.9" r="16.3"/>
        <circle class="st5" cx="373.1" cy="398.7" r="16.3"/>

        <ellipse transform="matrix(0.1602 -0.9871 0.9871 0.1602 21.3783 824.9785)" class="st5" cx="495.5" cy="399.9"
                 rx="16.3" ry="16.3"/>
        <circle class="st5" cx="303" cy="474.6" r="17.5"/>
        <circle class="st5" cx="443" cy="474.6" r="17.5"/>
        <circle class="st5" cx="224.9" cy="545.7" r="17.5"/>
        <circle class="st5" cx="373.1" cy="546.9" r="17.5"/>

        <ellipse transform="matrix(0.1602 -0.9871 0.9871 0.1602 -122.4884 947.3809)" class="st5" cx="495.5" cy="545.7"
                 rx="16.3" ry="16.3"/>
        <path class="st1"
              d="M613.4,327.2c0,0,26.7,2.8,45.8,51.2c0,0-8.6-3.1-12.9-6.5C642.1,368.4,614.7,335.7,613.4,327.2z"/>
        <path class="st1"
              d="M408,236.6c0,0,40.6-21.2,87.9,9c0,0-3.6,5.3-4.3,5.5c-0.7,0.2-46.4-0.9-46.4-0.9l-38.7-5.6l-2.5-4.7l2.9-2.3"
        />
        <path class="st1" d="M786.9,580c0,0-3.1,3.2-6.7,6.9v0c-2.4,2.4-5.4,5.4-8.8,8.6c-0.1,0-0.2,0-0.2,0L770,596h0c0,0,0,0-0.1,0
		c-1.2-0.9-2.4-1.9-3.6-2.8l-14.2-21.7c0,0-11.9-19.6-14.4-25.4c-2.5-5.9-5.7-12.2-7.1-17.1c-1.3-5-2.6-17.6-2.6-17.6l3.4,9.6
		c0,0,4.3,8.9,7.6,11.9c4.3,3.9,16.6,7.8,26.8,21.6c7.7,10.4,6.7,19.3,19.8,25.7L786.9,580z"/>
        <path class="st0" d="M780.2,586.9L780.2,586.9c-2.4,2.4-5.4,5.4-8.8,8.6c-0.1,0-0.2,0-0.2,0L770,596h0c0,0,0,0-0.1,0
		c-1.2-0.9-2.4-1.9-3.6-2.8c-13.2-11.1-23.9-27-32.3-42.3c-17.2-31.6-30.8-63.7-45.5-96c-38.2-84.2-90.7-159.3-182.4-189.9
		c-14.2-4.7-29.2-8.4-45.1-11.1c-49-8.2-99.8-8.7-148.6,0.9c-9.4,1.8-18.7,4-27.9,6.7c-0.1,0.1-0.3,0-0.4,0
		c-0.1-0.1-0.3-0.3-0.1-0.6c1.9-3.5,3.9-6.9,5.9-10.1c0.7-1.1,1.4-2.1,2.1-3.2c0,0,0,0,0,0c5.8-3.6,19-10.9,36.8-15.2
		c13.4-3.3,29.5-4.8,46.8-1.6c48.6,8.8,68.5,14.9,111.8,14.9c43.2,0,97.9,25.7,113.8,57.7c15.9,32.1,26,53,58.1,75.3
		c32.1,22.3,43.2,36.5,55.6,83.1c6.4,24.1,13.9,45.9,21.5,63.7c10.4,24.7,21,41.7,28.9,46.9C769.8,575,778.9,584,780.2,586.9z"/>
</g>
</svg>
