<?xml version="1.0" encoding="utf-8"?>
<!-- Generator: Adobe Illustrator 20.0.0, SVG Export Plug-In . SVG Version: 6.00 Build 0)  -->
<svg version="1.1" id="图层_1" xmlns="http://www.w3.org/2000/svg" x="0px"
     y="0px"
     viewBox="0 0 1005 886" style="enable-background:new 0 0 1005 886;" xml:space="preserve">
<style type="text/css">
	.st0{fill:#E13B3A;}
	.st1{fill:#BE1415;}
	.st2{fill:none;}
	.st3{fill:#7AAB02;}
	.st4{fill:#FCC062;}
	.st5{fill:#F7941E;}
</style>
    <path class="st0" d="M0,0L0,0L0,0L0,0L0,0L0,0L0,0z"/>
    <path class="st1" d="M0,0L0,0L0,0z"/>
    <path class="st2" d="M0,0L0,0L0,0z"/>
    <path class="st2" d="M0,0L0,0L0,0z"/>
    <path class="st2" d="M0,0L0,0L0,0z"/>
    <path class="st2" d="M0,0L0,0L0,0z"/>
    <path class="st2" d="M0,0L0,0L0,0z"/>
    <path class="st2" d="M0,0L0,0L0,0z"/>
    <path class="st2" d="M0,0L0,0L0,0z"/>
    <path class="st2" d="M0,0L0,0L0,0z"/>
    <path class="st2" d="M0,0L0,0L0,0z"/>
    <path class="st2" d="M0,0L0,0L0,0z"/>
    <path class="st2" d="M0,0L0,0L0,0z"/>
    <path class="st2" d="M0,0L0,0L0,0z"/>
    <path class="st2" d="M0,0L0,0L0,0z"/>
    <path class="st2" d="M0,0L0,0L0,0z"/>
    <path class="st2" d="M0,0L0,0L0,0z"/>
    <path class="st2" d="M0,0L0,0L0,0z"/>
    <path class="st2" d="M0,0L0,0L0,0z"/>
    <path class="st2" d="M0,0L0,0L0,0z"/>
    <path class="st2" d="M0,0L0,0L0,0z"/>
    <path class="st2" d="M0,0L0,0L0,0z"/>
    <path class="st2" d="M0,0L0,0L0,0z"/>
    <path class="st2" d="M0,0L0,0L0,0z"/>
    <path class="st2" d="M0,0L0,0L0,0z"/>
    <path class="st2" d="M0,0L0,0L0,0z"/>
    <path class="st2" d="M0,0L0,0L0,0z"/>
    <path class="st2" d="M0,0L0,0L0,0z"/>
    <g>
	<g id="XMLID_1_">
		<g>
			<path class="st3" d="M830.5,534.2c8.4,8.9,7.4,18.1,2.1,29c-9.1,18.7-25.9,35.4-40.3,48.9c-0.4,0.3-0.8,0.3-1.3,0
				c-16.1-12-29-31.5-39-49.7c-18.7-34.3-33.4-69.1-49.4-104.2c-41.4-91.4-98.4-172.8-197.9-206c-15.4-5.1-31.7-9.1-48.9-12
				c-63.4-10.6-129.7-9.3-191.5,8.2c-0.1,0.1-0.3,0-0.4,0c-0.1-0.1-0.3-0.3-0.1-0.7c21.4-39.1,51.3-65.6,95.2-75.3
				c23.1-5,37,5,57.1,13.8c22.5,10,45.8,13.8,69.8,11.6c40.3-3.9,70.3-25.3,112-8c33.4,13.8,38.1,45.4,42.6,76.4
				c2.1,14.8,5.4,27.7,9.8,39c10.3,26.4,39.7,34,63.7,41.3c15.7,4.8,31.5,9.1,47.1,14.8c11.7,4.4,14.8,19,11.3,29.9
				c-11.3,34.1-23.8,66,2,97.3C789.3,507,813.9,516.7,830.5,534.2z"/>
            <path d="M980.4,420.2c23.4,48.1,33.1,105.7,15.6,156.8c-24.6,71.9-89.6,98.3-161,97.3c-10.3-0.1-15.4-0.1-15.6-0.1
				c-262.1,0-524.3,0-786.4,0c-0.1,0-2.6,0.1-7.6,0.4c-6.7,0.4-14-2-19-6.4c-0.4-0.3-0.8-0.8-1.1-1.1c-2.1-2.3-3.7-5-4.7-8
				c-0.8-2.9-1-8-0.3-15.6C10.8,511.3,62.1,370,174.7,291c9.7-6.7,22-13.5,33.1-20c0.3-0.1,0.4-0.4,0.7-0.7c0.1-0.1,0.3-0.4,0.3-0.7
				c15.3-61.7,59.3-113.1,120.1-134.3c12.7-4.4,25.3-7.4,37.6-8c3.6-0.1,7.1-0.1,10.6,0c13,0.8,25.9,4,39,10.6
				c16.3,8.2,35,16.1,54.1,16.6c1.1,0,2.1,0,3.3,0c0.1,0,0.4,0,0.7,0c0.7,0,1.3,0,1.7,0c0.8,0,1.6-0.1,2.4-0.1
				c22.4-1.6,44.6-11.1,67.4-14.3c1.6-0.1,3.3-0.4,4.8-0.7c0.1,0,0.4,0,0.7,0c0.8,0,1.4-0.1,2.3-0.1c0.8,0,1.6-0.1,2.4-0.1
				c5-0.3,10.1-0.3,15.1,0c11,0.7,21.7,2.6,32.3,6c1.6,0.4,3,1,4.7,1.6c4.2,1.6,8.6,3.4,12.7,5.3c0.4,0.3,1,0.3,1.4,0.3l0,0
				c0,0,0,0,0.1,0c3.6-0.3,7.1-0.7,10.6-0.4c0.3,0,0.7,0,1,0.1c0.4,0,0.8,0.1,1.3,0.1c134.9,20.1,251.4,110.1,321.9,224.8
				c1.3,2.1,2.4,4,3.7,6.1c1.3,2.1,2.4,4,3.6,6.1v0.1C969.9,399.3,975.3,409.6,980.4,420.2z M954.1,562.8
				c22.4-60.4-11.9-130.8-45.8-180.4c-54.8-80.1-135.5-146.3-229-175.5c-2.6-0.8-5.1-1.4-7.6-2.1c-0.7-0.1-0.8,0-0.7,0.7
				c9,23,11.9,47.6,16.4,71.6c2.6,13.7,8.9,17.7,21.4,21.6c16.7,5.3,33.6,10.3,50.3,15.3c14.4,4.2,29.4,9.4,39.9,20.7
				c23.8,25.9,21.3,56,9.7,86.8c-6,15.9-10.7,32.8,4.8,44.4c32.8,24.4,75,45.5,66,95.2c-4.7,25.4-23.8,50.5-41.8,68.4
				c-0.1,0.1-0.1,0.4,0,0.7c0,0.1,0.1,0.1,0.3,0.1C889.2,631.7,935.6,612.8,954.1,562.8z M832.6,563.1c5.3-10.7,6.3-20.1-2.1-29
				c-16.6-17.6-41.1-27.1-56.3-45.8c-25.7-31.4-13.2-63.1-2-97.3c3.6-11,0.4-25.4-11.3-29.9c-15.6-5.6-31.4-10-47.1-14.8
				c-24-7.4-53.4-15-63.7-41.3c-4.3-11.3-7.7-24.1-9.8-39c-4.4-31-9.1-62.6-42.6-76.4c-41.7-17.3-71.7,4.2-112,8
				c-24,2.3-47.3-1.6-69.8-11.6c-20.1-8.9-34-18.8-57.1-13.8c-43.9,9.7-73.8,36.1-95.2,75.3c-0.1,0.3,0,0.4,0.1,0.7
				c0.1,0,0.3,0.1,0.4,0c62-17.6,128.1-18.8,191.5-8.2c17.3,2.9,33.4,6.9,48.9,12c99.5,33.1,156.5,114.7,197.9,206
				c15.9,35,30.7,70,49.4,104.2c10,18.1,22.8,37.6,39,49.7c0.4,0.3,0.8,0.3,1.3,0C806.6,598.6,823.3,581.8,832.6,563.1z M743.9,630
				c0.7,0,0.8-0.3,0.3-0.8c-38-46.8-59-103.3-83.3-156.7c-14.3-31.4-31.4-61-51.6-89c-41.3-57.3-97.4-90.5-167.4-101
				c-125.6-18.8-244.8,13-318.5,122.4c-44.6,66-69,145.8-77.1,224.5c-0.1,0.4,0,0.8,0.7,0.8c14.1,0.8,28.3-0.3,42.3-0.3
				C307.3,630,525.6,630,743.9,630z"/>
            <path class="st4" d="M908.3,382.4c34,49.5,68.1,120,45.8,180.4c-18.4,50-65,68.8-116.1,67.3c-0.1,0-0.3,0-0.3-0.1
				c-0.1-0.1-0.1-0.4,0-0.7c18-17.9,37.1-43,41.8-68.4c9-49.7-33.1-70.7-66-95.2c-15.6-11.6-10.7-28.4-4.8-44.4
				c11.6-30.9,14.1-61-9.7-86.8c-10.4-11.3-25.4-16.6-39.9-20.7c-16.7-5-33.6-10-50.3-15.3c-12.6-3.9-18.8-7.9-21.4-21.6
				c-4.4-24-7.4-48.6-16.4-71.6c-0.1-0.7,0-0.8,0.7-0.7c2.4,0.7,5,1.3,7.6,2.1C772.8,236.1,853.5,302.3,908.3,382.4z"/>
            <path d="M635.4,152c134.5,20.2,251.3,110.4,321.5,224.9c-70.5-114.7-187-204.8-321.7-224.9c-0.4,0-0.8-0.1-1.3-0.1
				C634.4,151.8,634.9,151.8,635.4,152z"/>
            <path class="st4" d="M744.2,629.3c0.4,0.4,0.3,0.8-0.3,0.8c-218.4,0-436.6,0-654.8,0c-14,0-28.1,1.1-42.3,0.3
				c-0.7,0-0.8-0.3-0.7-0.8c8.2-78.7,32.7-158.5,77.1-224.5c73.9-109.4,193-141.3,318.7-122.4c70,10.4,126.1,43.7,167.4,101
				c20.3,28,37.3,57.6,51.6,89C685.2,526,706.3,582.4,744.2,629.3z"/>
            <path d="M622.2,152.1L622.2,152.1c-0.4,0-1,0-1.4-0.3c-4.2-2.1-8.4-3.9-12.7-5.3c4.3,1.6,8.7,3.4,12.9,5.3
				C621.4,151.8,621.9,152,622.2,152.1z"/>
            <path d="M550.8,139.3c-1.6,0.1-3.3,0.3-4.8,0.7C547.6,139.6,549.2,139.4,550.8,139.3z"/>
            <path d="M478.6,154.2c22.4-1.6,44.6-11.1,67.4-14.3C523.1,143.1,501,152.7,478.6,154.2z"/>
            <path d="M474.3,154.4c0.7,0,1.3,0,1.7,0C475.4,154.4,474.9,154.4,474.3,154.4z"/>
            <path d="M416.4,138c16.3,8.2,35,16.1,54,16.6c-19.1-0.4-38-8.4-54.1-16.6c-13-6.6-25.9-10-39-10.6
				C390.3,128,403.3,131.2,416.4,138z"/>
            <path d="M208.6,270c-0.1,0.3-0.3,0.4-0.7,0.7c-11.1,6.4-23.4,13.2-33.1,20C62.3,369.5,11,510.9,0.5,643.1
				c-0.7,7.6-0.4,12.7,0.3,15.6c0.8,3,2.4,5.8,4.7,8c-2.3-2.3-3.9-5.1-4.8-8.2c-0.8-2.9-1-8-0.3-15.6
				c10.4-132.1,61.7-273.3,174.4-352.4c9.7-6.7,22-13.5,33.1-20C208.2,270.5,208.5,270.3,208.6,270z"/>
		</g>
	</g>
        <circle class="st5" cx="199.5" cy="399.8" r="17.7"/>
        <circle class="st5" cx="360.3" cy="398.5" r="17.7"/>

        <ellipse transform="matrix(0.1602 -0.9871 0.9871 0.1602 19.3964 822.4874)" class="st5" cx="493.1" cy="399.8"
                 rx="17.7" ry="17.7"/>
        <circle class="st5" cx="284.2" cy="480.9" r="19"/>
        <circle class="st5" cx="436.1" cy="480.9" r="19"/>
        <circle class="st5" cx="199.5" cy="558" r="19"/>
        <circle class="st5" cx="360.3" cy="559.3" r="19"/>

        <ellipse transform="matrix(0.1602 -0.9871 0.9871 0.1602 -136.6568 955.3529)" class="st5" cx="493.1" cy="558"
                 rx="17.7" ry="17.7"/>
        <path class="st1" d="M621,320.9c0,0,29,3,49.7,55.6c0,0-9.3-3.4-14-7.1C652.1,365.6,622.4,330.2,621,320.9z"/>
        <path class="st1"
              d="M398.1,222.6c0,0,44-23,95.4,9.8c0,0-3.9,5.8-4.7,6c-0.8,0.2-50.3-1-50.3-1l-42-6.1l-2.7-5.1l3.1-2.5"/>
        <path class="st1" d="M809.2,595.2c0,0-3.4,3.5-7.3,7.5l0,0c-2.6,2.6-5.9,5.9-9.5,9.3c-0.1,0-0.2,0-0.2,0l-1.3,0.5l0,0
		c0,0,0,0-0.1,0c-1.3-1-2.6-2.1-3.9-3L771.5,586c0,0-12.9-21.3-15.6-27.6c-2.7-6.4-6.2-13.2-7.7-18.6c-1.4-5.4-2.8-19.1-2.8-19.1
		l3.7,10.4c0,0,4.7,9.7,8.2,12.9c4.7,4.2,18,8.5,29.1,23.4c8.4,11.3,7.3,20.9,21.5,27.9L809.2,595.2z"/>
        <path class="st0" d="M802,602.7L802,602.7c-2.6,2.6-5.9,5.9-9.5,9.3c-0.1,0-0.2,0-0.2,0l-1.3,0.5l0,0c0,0,0,0-0.1,0
		c-1.3-1-2.6-2.1-3.9-3c-14.3-12-25.9-29.3-35-45.9c-18.7-34.3-33.4-69.1-49.4-104.2c-41.4-91.4-98.4-172.8-197.9-206
		c-15.4-5.1-31.7-9.1-48.9-12c-53.2-8.9-108.3-9.4-161.2,1c-10.2,2-20.3,4.3-30.3,7.3c-0.1,0.1-0.3,0-0.4,0
		c-0.1-0.1-0.3-0.3-0.1-0.7c2.1-3.8,4.2-7.5,6.4-11c0.8-1.2,1.5-2.3,2.3-3.5l0,0c6.3-3.9,20.6-11.8,39.9-16.5
		c14.5-3.6,32-5.2,50.8-1.7c52.7,9.5,74.3,16.2,121.3,16.2c46.9,0,106.2,27.9,123.5,62.6c17.3,34.8,28.2,57.5,63,81.7
		c34.8,24.2,46.9,39.6,60.3,90.2c6.9,26.1,15.1,49.8,23.3,69.1c11.3,26.8,22.8,45.2,31.4,50.9C790.7,589.8,800.5,599.5,802,602.7z"
        />
</g>
</svg>
